<svg width="24" height="24" viewBox="0 0 24 24" fill="none" xmlns="http://www.w3.org/2000/svg">
<g clip-path="url(#clip0_2624_1470)">
<path d="M12.1876 9.10901L13.376 7.92062L16.0772 10.6219L14.8889 11.8103L12.1876 9.10901Z" fill="white"/>
<path d="M8.19348 13.1024L11.1929 10.103L13.8942 12.8043L10.8948 15.8037L8.19348 13.1024Z" fill="white"/>
<path d="M21.2107 3.78361L24 0.994313L23.0057 0L20.2165 2.7892H18.5091L14.3727 6.92555L17.0744 9.62723L21.2108 5.49089L21.2107 3.78361Z" fill="white"/>
<path d="M4.61217 20.3822L3.61786 19.3878L8.05491 14.9508L6.94073 13.8365L4.63697 13.5987L0 18.2357L1.08675 19.3225L3.61786 19.3878L2.33227 20.6734L3.32658 21.6678L4.61217 20.3822L4.67752 22.9133L5.76431 24L10.4013 19.3631L10.1634 17.0593L9.04926 15.9451L4.61217 20.3822Z" fill="white"/>
</g>
<defs>
<clipPath id="clip0_2624_1470">
<rect width="24" height="24" fill="white"/>
</clipPath>
</defs>
</svg>
