<svg width="40" height="40" viewBox="0 0 40 40" fill="none" xmlns="http://www.w3.org/2000/svg">
<path d="M9.09479 5.26123H6.17737V40.0001H28.5615V37.0826H9.09479V5.26123Z" fill="white"/>
<path d="M11.4385 0V34.7388H33.8227V0H11.4385ZM14.3993 2.95422H16.7431V5.29797H14.3993V2.95422ZM23.8395 24.6836H21.4957V21.8896C20.9427 22.1325 20.3403 22.2604 19.7181 22.2604C18.5371 22.2604 17.4267 21.8005 16.5917 20.9654C14.8678 19.2416 14.8678 16.4366 16.5917 14.7126L22.6675 8.63672L28.7434 14.7126C30.4672 16.4365 30.4672 19.2415 28.7434 20.9654C27.9084 21.8005 26.7981 22.2604 25.617 22.2604C24.9949 22.2604 24.3924 22.1326 23.8394 21.8897L23.8395 24.6836ZM30.9471 31.8116H28.6033V29.4678H30.9471V31.8116Z" fill="white"/>
<path d="M27.0861 19.308C27.8962 18.498 27.8961 17.1798 27.0861 16.3698L22.6675 11.9512L18.2488 16.3698C17.4388 17.1798 17.4387 18.498 18.2488 19.308C18.6412 19.7005 19.163 19.9166 19.718 19.9166C20.273 19.9166 20.7947 19.7005 21.1872 19.308L22.6675 17.8277L24.1478 19.308C24.5402 19.7005 25.062 19.9166 25.617 19.9166C26.172 19.9166 26.6937 19.7005 27.0861 19.308Z" fill="white"/>
</svg>
